<svg width="48" height="48" viewBox="0 0 48 48" fill="none" xmlns="http://www.w3.org/2000/svg">
<mask id="mask0_672_2418" style="mask-type:alpha" maskUnits="userSpaceOnUse" x="0" y="0" width="48" height="48">
<rect width="48" height="48" fill="#D9D9D9"/>
</mask>
<g mask="url(#mask0_672_2418)">
<path d="M34.8 25.3002L32.7 23.2002L36.85 19.0002L32.7 14.8502L34.8 12.7502L39 16.9002L43.15 12.7502L45.25 14.8502L41.1 19.0002L45.25 23.2002L43.15 25.3002L39 21.1502L34.8 25.3002ZM18 23.9502C15.8 23.9502 14 23.2502 12.6 21.8502C11.2 20.4502 10.5 18.6502 10.5 16.4502C10.5 14.2502 11.2 12.4502 12.6 11.0502C14 9.6502 15.8 8.9502 18 8.9502C20.2 8.9502 22 9.6502 23.4 11.0502C24.8 12.4502 25.5 14.2502 25.5 16.4502C25.5 18.6502 24.8 20.4502 23.4 21.8502C22 23.2502 20.2 23.9502 18 23.9502ZM2 40.0002V35.3002C2 34.1335 2.29167 33.0752 2.875 32.1252C3.45833 31.1752 4.3 30.4669 5.4 30.0002C7.9 28.9002 10.125 28.1252 12.075 27.6752C14.025 27.2252 16 27.0002 18 27.0002C20 27.0002 21.9667 27.2252 23.9 27.6752C25.8333 28.1252 28.05 28.9002 30.55 30.0002C31.65 30.5002 32.5 31.2169 33.1 32.1502C33.7 33.0835 34 34.1335 34 35.3002V40.0002H2ZM5 37.0002H31V35.3002C31 34.7669 30.85 34.2585 30.55 33.7752C30.25 33.2919 29.85 32.9335 29.35 32.7002C26.9833 31.6002 24.9833 30.8752 23.35 30.5252C21.7167 30.1752 19.9333 30.0002 18 30.0002C16.0667 30.0002 14.275 30.1752 12.625 30.5252C10.975 30.8752 8.96667 31.6002 6.6 32.7002C6.1 32.9335 5.70833 33.2919 5.425 33.7752C5.14167 34.2585 5 34.7669 5 35.3002V37.0002ZM18 20.9502C19.3 20.9502 20.375 20.5252 21.225 19.6752C22.075 18.8252 22.5 17.7502 22.5 16.4502C22.5 15.1502 22.075 14.0752 21.225 13.2252C20.375 12.3752 19.3 11.9502 18 11.9502C16.7 11.9502 15.625 12.3752 14.775 13.2252C13.925 14.0752 13.5 15.1502 13.5 16.4502C13.5 17.7502 13.925 18.8252 14.775 19.6752C15.625 20.5252 16.7 20.9502 18 20.9502Z" fill="#461BA6"/>
</g>
</svg>
