<svg width="48" height="48" viewBox="0 0 48 48" fill="none" xmlns="http://www.w3.org/2000/svg">
<mask id="mask0_672_2355" style="mask-type:alpha" maskUnits="userSpaceOnUse" x="0" y="0" width="48" height="48">
<rect width="48" height="48" fill="#D9D9D9"/>
</mask>
<g mask="url(#mask0_672_2355)">
<path d="M28 44V37.85L39.05 26.85C39.35 26.55 39.6833 26.3333 40.05 26.2C40.4167 26.0667 40.7833 26 41.15 26C41.55 26 41.9333 26.075 42.3 26.225C42.6667 26.375 43 26.6 43.3 26.9L45.15 28.75C45.45 29.05 45.6667 29.3833 45.8 29.75C45.9333 30.1167 46 30.4833 46 30.85C46 31.2167 45.925 31.5917 45.775 31.975C45.625 32.3583 45.4015 32.7 45.1045 33L34.15 44H28ZM31 41H32.9L38.95 34.9L38.05 33.95L37.1 33.05L31 39.1V41ZM11 44C10.2 44 9.5 43.7 8.9 43.1C8.3 42.5 8 41.8 8 41V7C8 6.2 8.3 5.5 8.9 4.9C9.5 4.3 10.2 4 11 4H28L40 16V21.8H37V18H26V7H11V41H25V44H11ZM38.05 33.95L37.1 33.05L38.95 34.9L38.05 33.95Z" fill="#461BA6"/>
</g>
</svg>
